
<svg width="64" height="64" viewBox="0 0 64 64" fill="none" xmlns="http://www.w3.org/2000/svg">
  <rect width="64" height="64" rx="16" fill="#F1F8E9"/>
  <path d="M32 12C18.745 12 8 22.745 8 36C8 49.255 18.745 60 32 60C45.255 60 56 49.255 56 36C56 22.745 45.255 12 32 12ZM32 56C20.954 56 12 47.046 12 36C12 24.954 20.954 16 32 16C43.046 16 52 24.954 52 36C52 47.046 43.046 56 32 56Z" fill="#2E7D32"/>
  <path d="M32 20C23.163 20 16 27.163 16 36C16 44.837 23.163 52 32 52C40.837 52 48 44.837 48 36C48 27.163 40.837 20 32 20ZM32 48C25.373 48 20 42.627 20 36C20 29.373 25.373 24 32 24C38.627 24 44 29.373 44 36C44 42.627 38.627 48 32 48Z" fill="#FFB300"/>
  <path d="M32 28C27.582 28 24 31.582 24 36C24 40.418 27.582 44 32 44C36.418 44 40 40.418 40 36C40 31.582 36.418 28 32 28Z" fill="#03A9F4"/>
</svg>
